<?xml version="1.0" encoding="utf-8"?>
<!-- Svg Vector Icons : http://www.onlinewebfonts.com/icon -->
<!DOCTYPE svg PUBLIC "-//W3C//DTD SVG 1.1//EN" "http://www.w3.org/Graphics/SVG/1.1/DTD/svg11.dtd">
<svg version="1.1" xmlns="http://www.w3.org/2000/svg" xmlns:xlink="http://www.w3.org/1999/xlink" x="0px" y="0px" viewBox="0 0 1000 1000" enable-background="new 0 0 1000 1000" xml:space="preserve">
<metadata> Svg Vector Icons : http://www.onlinewebfonts.com/icon </metadata>
<g><path d="M386.9,839.2c0,20.8-7.4,38.6-22.1,53.3c-14.7,14.7-32.5,22.1-53.3,22.1c-20.8,0-38.6-7.4-53.3-22.1c-14.7-14.7-22.1-32.5-22.1-53.3c0-20.8,7.4-38.6,22.1-53.3c14.7-14.7,32.5-22.1,53.3-22.1c20.8,0,38.6,7.4,53.3,22.1C379.6,800.7,386.9,818.4,386.9,839.2L386.9,839.2z M914.6,839.2c0,20.8-7.4,38.6-22.1,53.3s-32.5,22.1-53.3,22.1c-20.8,0-38.6-7.4-53.3-22.1c-14.7-14.7-22.1-32.5-22.1-53.3c0-20.8,7.4-38.6,22.1-53.3c14.7-14.7,32.5-22.1,53.3-22.1c20.8,0,38.6,7.4,53.3,22.1C907.3,800.7,914.6,818.4,914.6,839.2L914.6,839.2z M990,198.5V500c0,9.4-3.1,17.8-9.4,25c-6.3,7.3-14.3,11.5-24.2,12.7l-614.8,71.8c0.4,2.7,1.3,7,2.6,12.7c1.4,5.7,2.5,10.9,3.5,15.6c1,4.7,1.5,9,1.5,13c0,6.3-4.7,18.8-14.1,37.7h541.8c10.2,0,19,3.7,26.5,11.2c7.5,7.5,11.2,16.3,11.2,26.5c0,10.2-3.7,19-11.2,26.5c-7.5,7.5-16.3,11.2-26.5,11.2H273.8c-10.2,0-19-3.7-26.5-11.2c-7.5-7.5-11.2-16.3-11.2-26.5c0-5.5,2.2-13.3,6.5-23.3s10.1-21.7,17.4-35.1c7.3-13.4,11.3-20.8,12.1-22.4L167.8,160.8H47.7c-10.2,0-19-3.7-26.5-11.2c-7.5-7.5-11.2-16.3-11.2-26.5c0-10.2,3.7-19,11.2-26.5c7.5-7.5,16.3-11.2,26.5-11.2h150.8c6.3,0,11.9,1.3,16.8,3.8c4.9,2.6,8.8,5.6,11.8,9.1c3,3.5,5.5,8.3,7.7,14.4c2.1,6.1,3.6,11.3,4.4,15.6s1.9,10.1,3.2,17.4c1.4,7.3,2.2,12.3,2.6,15h707.3c10.2,0,19,3.7,26.5,11.2C986.3,179.4,990,188.3,990,198.5L990,198.5z"/></g>
</svg>